<mxfile host="app.diagrams.net" agent="Mozilla/5.0 (X11; Ubuntu; Linux x86_64; rv:135.0) Gecko/20100101 Firefox/135.0" version="26.0.16">
  <diagram name="Page-1" id="Mu7g63zyLINAHXqi7z-8">
    <mxGraphModel dx="880" dy="478" grid="1" gridSize="10" guides="1" tooltips="1" connect="1" arrows="1" fold="1" page="1" pageScale="1" pageWidth="850" pageHeight="1100" math="0" shadow="0">
      <root>
        <mxCell id="0" />
        <mxCell id="1" parent="0" />
        <mxCell id="dBsSu0uMn5My9wH_t9E--5" style="edgeStyle=orthogonalEdgeStyle;rounded=0;orthogonalLoop=1;jettySize=auto;html=1;exitX=1;exitY=0.5;exitDx=0;exitDy=0;" edge="1" parent="1" target="dBsSu0uMn5My9wH_t9E--2">
          <mxGeometry relative="1" as="geometry">
            <mxPoint x="200" y="220" as="sourcePoint" />
          </mxGeometry>
        </mxCell>
        <mxCell id="dBsSu0uMn5My9wH_t9E--6" style="edgeStyle=orthogonalEdgeStyle;rounded=0;orthogonalLoop=1;jettySize=auto;html=1;entryX=0;entryY=0.5;entryDx=0;entryDy=0;" edge="1" parent="1" source="dBsSu0uMn5My9wH_t9E--2" target="dBsSu0uMn5My9wH_t9E--3">
          <mxGeometry relative="1" as="geometry" />
        </mxCell>
        <mxCell id="dBsSu0uMn5My9wH_t9E--2" value="1" style="ellipse;whiteSpace=wrap;html=1;aspect=fixed;" vertex="1" parent="1">
          <mxGeometry x="280" y="180" width="80" height="80" as="geometry" />
        </mxCell>
        <mxCell id="dBsSu0uMn5My9wH_t9E--7" style="edgeStyle=orthogonalEdgeStyle;rounded=0;orthogonalLoop=1;jettySize=auto;html=1;entryX=0;entryY=0.5;entryDx=0;entryDy=0;" edge="1" parent="1" source="dBsSu0uMn5My9wH_t9E--3" target="dBsSu0uMn5My9wH_t9E--4">
          <mxGeometry relative="1" as="geometry" />
        </mxCell>
        <mxCell id="dBsSu0uMn5My9wH_t9E--3" value="0" style="ellipse;whiteSpace=wrap;html=1;aspect=fixed;" vertex="1" parent="1">
          <mxGeometry x="450" y="180" width="80" height="80" as="geometry" />
        </mxCell>
        <mxCell id="dBsSu0uMn5My9wH_t9E--4" value="0" style="ellipse;whiteSpace=wrap;html=1;aspect=fixed;" vertex="1" parent="1">
          <mxGeometry x="620" y="180" width="80" height="80" as="geometry" />
        </mxCell>
        <mxCell id="dBsSu0uMn5My9wH_t9E--12" value="" style="group" vertex="1" connectable="0" parent="1">
          <mxGeometry x="320" y="120" width="21" as="geometry" />
        </mxCell>
        <mxCell id="dBsSu0uMn5My9wH_t9E--8" style="edgeStyle=orthogonalEdgeStyle;rounded=0;orthogonalLoop=1;jettySize=auto;html=1;exitX=0.5;exitY=0;exitDx=0;exitDy=0;" edge="1" parent="dBsSu0uMn5My9wH_t9E--12" source="dBsSu0uMn5My9wH_t9E--2">
          <mxGeometry relative="1" as="geometry">
            <mxPoint as="targetPoint" />
          </mxGeometry>
        </mxCell>
        <mxCell id="dBsSu0uMn5My9wH_t9E--9" style="edgeStyle=orthogonalEdgeStyle;rounded=0;orthogonalLoop=1;jettySize=auto;html=1;entryX=0.75;entryY=0.088;entryDx=0;entryDy=0;entryPerimeter=0;" edge="1" parent="dBsSu0uMn5My9wH_t9E--12" target="dBsSu0uMn5My9wH_t9E--2">
          <mxGeometry relative="1" as="geometry">
            <mxPoint x="30" as="targetPoint" />
            <mxPoint x="20" as="sourcePoint" />
          </mxGeometry>
        </mxCell>
        <mxCell id="dBsSu0uMn5My9wH_t9E--11" value="" style="endArrow=none;html=1;rounded=0;" edge="1" parent="dBsSu0uMn5My9wH_t9E--12">
          <mxGeometry width="50" height="50" relative="1" as="geometry">
            <mxPoint x="1" as="sourcePoint" />
            <mxPoint x="21" as="targetPoint" />
            <Array as="points">
              <mxPoint x="11" />
            </Array>
          </mxGeometry>
        </mxCell>
        <mxCell id="dBsSu0uMn5My9wH_t9E--13" value="0,1" style="text;html=1;align=center;verticalAlign=middle;whiteSpace=wrap;rounded=0;" vertex="1" parent="1">
          <mxGeometry x="300.5" y="95" width="60" height="30" as="geometry" />
        </mxCell>
        <mxCell id="dBsSu0uMn5My9wH_t9E--14" value="start" style="text;html=1;align=center;verticalAlign=middle;whiteSpace=wrap;rounded=0;" vertex="1" parent="1">
          <mxGeometry x="150" y="205" width="60" height="30" as="geometry" />
        </mxCell>
        <mxCell id="dBsSu0uMn5My9wH_t9E--16" value="a" style="ellipse;whiteSpace=wrap;html=1;aspect=fixed;" vertex="1" parent="1">
          <mxGeometry x="240" y="430" width="50" height="50" as="geometry" />
        </mxCell>
        <mxCell id="dBsSu0uMn5My9wH_t9E--17" value="1.&amp;nbsp; &lt;b&gt;(0|1*)00&lt;/b&gt;" style="text;html=1;align=center;verticalAlign=middle;whiteSpace=wrap;rounded=0;" vertex="1" parent="1">
          <mxGeometry x="40" y="80" width="80" height="30" as="geometry" />
        </mxCell>
        <mxCell id="dBsSu0uMn5My9wH_t9E--18" value="2.&amp;nbsp; &lt;b&gt;a*(a|b)&lt;/b&gt;" style="text;html=1;align=center;verticalAlign=middle;whiteSpace=wrap;rounded=0;" vertex="1" parent="1">
          <mxGeometry x="40" y="360" width="60" height="30" as="geometry" />
        </mxCell>
        <mxCell id="dBsSu0uMn5My9wH_t9E--29" style="edgeStyle=orthogonalEdgeStyle;rounded=0;orthogonalLoop=1;jettySize=auto;html=1;exitX=1;exitY=0.5;exitDx=0;exitDy=0;" edge="1" parent="1">
          <mxGeometry relative="1" as="geometry">
            <mxPoint x="160" y="454.5" as="sourcePoint" />
            <mxPoint x="240" y="454.5" as="targetPoint" />
          </mxGeometry>
        </mxCell>
        <mxCell id="dBsSu0uMn5My9wH_t9E--30" value="start" style="text;html=1;align=center;verticalAlign=middle;whiteSpace=wrap;rounded=0;" vertex="1" parent="1">
          <mxGeometry x="110" y="440" width="60" height="30" as="geometry" />
        </mxCell>
        <mxCell id="dBsSu0uMn5My9wH_t9E--35" style="edgeStyle=orthogonalEdgeStyle;rounded=0;orthogonalLoop=1;jettySize=auto;html=1;exitX=0.5;exitY=0;exitDx=0;exitDy=0;" edge="1" parent="1">
          <mxGeometry relative="1" as="geometry">
            <mxPoint x="254.5" y="368" as="targetPoint" />
            <mxPoint x="254.5" y="428" as="sourcePoint" />
          </mxGeometry>
        </mxCell>
        <mxCell id="dBsSu0uMn5My9wH_t9E--36" style="edgeStyle=orthogonalEdgeStyle;rounded=0;orthogonalLoop=1;jettySize=auto;html=1;entryX=0.75;entryY=0.088;entryDx=0;entryDy=0;entryPerimeter=0;" edge="1" parent="1">
          <mxGeometry relative="1" as="geometry">
            <mxPoint x="274.5" y="432" as="targetPoint" />
            <mxPoint x="274.5" y="365" as="sourcePoint" />
          </mxGeometry>
        </mxCell>
        <mxCell id="dBsSu0uMn5My9wH_t9E--37" value="a,b" style="text;html=1;align=center;verticalAlign=middle;whiteSpace=wrap;rounded=0;" vertex="1" parent="1">
          <mxGeometry x="235" y="340" width="60" height="30" as="geometry" />
        </mxCell>
      </root>
    </mxGraphModel>
  </diagram>
</mxfile>
